<svg width="17" height="16" viewBox="0 0 17 16" fill="none" xmlns="http://www.w3.org/2000/svg">
<path d="M7.57315 13.4779C3.85922 13.4779 0.834229 10.4608 0.834229 6.73893C0.834229 3.01708 3.85922 0 7.57315 0C11.2871 0 14.3121 3.02499 14.3121 6.73893C14.3121 10.4529 11.2871 13.4779 7.57315 13.4779ZM7.57315 0.886909C4.34227 0.886909 1.72114 3.51596 1.72114 6.73893C1.72114 9.96189 4.35019 12.5909 7.57315 12.5909C10.7961 12.5909 13.4252 9.96189 13.4252 6.73893C13.4252 3.51596 10.7961 0.886909 7.57315 0.886909Z" fill="#607161"/>
<path d="M16.3868 15.996C16.2759 15.996 16.1571 15.9564 16.0779 15.8693L11.6672 11.4585C11.4929 11.2843 11.4929 11.0072 11.6672 10.833C11.8414 10.6587 12.1185 10.6587 12.2927 10.833L16.7035 15.2438C16.8778 15.418 16.8778 15.6951 16.7035 15.8693C16.6164 15.9564 16.5056 15.996 16.3947 15.996H16.3868Z" fill="#607161"/>
</svg>
