<svg width="17" height="16" viewBox="0 0 17 16" fill="none" xmlns="http://www.w3.org/2000/svg">
<path d="M16.2155 15.9921C16.1047 15.9921 15.9859 15.9446 15.9067 15.8654L8.66279 8.62147L1.41885 15.8654C1.29218 15.9921 1.10217 16.0317 0.935919 15.9604C0.769665 15.8892 0.666748 15.7308 0.666748 15.5487V0.443345C0.666748 0.197922 0.864668 0 1.11009 0H16.2234C16.4688 0 16.6667 0.197922 16.6667 0.443345V15.5567C16.6667 15.7387 16.5559 15.8971 16.3976 15.9683C16.3422 15.9921 16.2867 16 16.2313 16L16.2155 15.9921ZM8.66279 7.5527C8.77362 7.5527 8.89238 7.59228 8.97155 7.67937L15.7721 14.48V0.88669H1.54552V14.4879L8.34611 7.68728C8.4332 7.6002 8.54403 7.56061 8.65487 7.56061L8.66279 7.5527Z" fill="#607161"/>
</svg>
