<svg width="32" height="34" viewBox="0 0 32 34" fill="none" xmlns="http://www.w3.org/2000/svg">
<g clip-path="url(#clip0_100_307)">
<mask id="mask0_100_307" style="mask-type:luminance" maskUnits="userSpaceOnUse" x="0" y="1" width="32" height="33">
<path d="M32 1.9303H0V33.9303H32V1.9303Z" fill="white"/>
</mask>
<g mask="url(#mask0_100_307)">
<path d="M21.3332 7.26355H10.6665C7.72107 7.26355 5.33325 9.65137 5.33325 12.5969V23.2636C5.33325 26.2091 7.72107 28.5969 10.6665 28.5969H21.3332C24.2787 28.5969 26.6665 26.2091 26.6665 23.2636V12.5969C26.6665 9.65137 24.2787 7.26355 21.3332 7.26355Z" stroke="#D0C9C0" stroke-linecap="round" stroke-linejoin="round"/>
<path d="M16 21.9302C18.2091 21.9302 20 20.1394 20 17.9302C20 15.7211 18.2091 13.9302 16 13.9302C13.7909 13.9302 12 15.7211 12 17.9302C12 20.1394 13.7909 21.9302 16 21.9302Z" stroke="#D0C9C0" stroke-linecap="round" stroke-linejoin="round"/>
<path d="M22 11.9302V11.9312" stroke="#D0C9C0" stroke-linecap="round" stroke-linejoin="round"/>
</g>
</g>
<defs>
<clipPath id="clip0_100_307">
<rect width="32" height="33" fill="white" transform="translate(0 0.930298)"/>
</clipPath>
</defs>
</svg>
