<svg width="121" height="32" viewBox="0 0 121 32" fill="none" xmlns="http://www.w3.org/2000/svg">
<path d="M49.6565 22.6257H46.1279V9.3743H49.6565C50.6874 9.3743 51.576 9.74958 52.3266 10.5001C53.0772 11.2507 53.4524 12.1436 53.4524 13.1703C53.4524 13.7655 53.3273 14.3263 53.0685 14.8526C52.814 15.3788 52.5164 15.7671 52.1799 16.0086C52.5207 16.2502 52.814 16.6341 53.0685 17.1603C53.323 17.6866 53.4524 18.2474 53.4524 18.8426C53.4524 19.8736 53.0772 20.7622 52.3266 21.5041C51.576 22.2504 50.6831 22.6214 49.6565 22.6214V22.6257ZM49.6565 14.9906C50.1784 14.9906 50.6141 14.8181 50.9635 14.473C51.3129 14.1279 51.4897 13.6922 51.4897 13.1746C51.4897 12.6569 51.3129 12.217 50.9635 11.8676C50.6098 11.5182 50.1741 11.3413 49.6565 11.3413H48.0949V14.9949H49.6565V14.9906ZM49.6565 20.6802C50.1784 20.6802 50.6141 20.5034 50.9635 20.154C51.3129 19.8046 51.4897 19.3646 51.4897 18.847C51.4897 18.3293 51.3129 17.8937 50.9635 17.5486C50.6098 17.2035 50.1741 17.0309 49.6565 17.0309H48.0949V20.6846H49.6565V20.6802Z" fill="#D0C9C0"/>
<path d="M65.8238 22.6257H59.2067V9.3743H65.8238V11.337H61.1694V14.9906H64.5685V16.9533H61.1694V20.663H65.8238V22.6257Z" fill="#D0C9C0"/>
<path d="M80.4814 22.6257H78.4626L77.354 18.338H74.6278L73.5192 22.6257H71.5005L74.9902 9.3743H76.9917L80.4814 22.6257ZM76.8278 16.3537L75.9909 13.1918L75.1541 16.3537H76.8278Z" fill="#D0C9C0"/>
<path d="M92.016 21.543C91.2956 22.2633 90.4372 22.6257 89.4451 22.6257C88.453 22.6257 87.5902 22.2633 86.8656 21.543C86.1366 20.8226 85.7742 19.9642 85.7742 18.9721V9.3743H87.7369V18.9721C87.7369 19.4552 87.9008 19.8607 88.2287 20.1799C88.5565 20.5034 88.962 20.663 89.4451 20.663C89.9282 20.663 90.3337 20.5034 90.6529 20.1799C90.9721 19.8607 91.136 19.4552 91.136 18.9721V9.3743H93.0987V18.9721C93.0987 19.9642 92.7364 20.8226 92.016 21.543Z" fill="#D0C9C0"/>
<path d="M103.481 22.6257H101.519V11.337H98.8487V9.3743H106.156V11.337H103.481V22.6257Z" fill="#D0C9C0"/>
<path d="M117.302 22.6257H115.34V16.2631L111.72 9.3743H113.938L116.319 13.882L118.7 9.3743H120.917L117.298 16.2286V22.6257H117.302Z" fill="#D0C9C0"/>
<path d="M28.0496 23.6437C27.4155 23.6437 26.9712 23.3935 26.7124 22.8888C26.5959 22.6818 26.5355 22.3971 26.5355 22.0304C26.5355 21.4351 26.7253 20.6587 27.0963 19.7011C27.5665 18.5364 28.0798 17.6349 28.6449 16.9964C28.7139 16.9274 28.7958 16.8929 28.8907 16.8929C28.9598 16.8929 29.0417 16.9145 29.1366 16.9619C29.2056 17.031 29.2402 17.1215 29.2402 17.2337C29.2402 17.2811 29.2143 17.3502 29.1711 17.4407C28.77 17.8505 28.3515 18.5537 27.9072 19.5458C27.4629 20.5379 27.2386 21.3661 27.2386 22.0304C27.2386 22.3022 27.2731 22.4963 27.3422 22.6128C27.4371 22.8629 27.67 22.988 28.0453 22.988C29.8958 22.988 32.031 21.7328 34.4467 19.2223C34.5157 19.1532 34.5976 19.1187 34.6925 19.1187C34.7616 19.1187 34.8435 19.1403 34.9384 19.1878C35.0074 19.2568 35.0419 19.3474 35.0419 19.4638C35.0419 19.5113 35.0161 19.576 34.9729 19.6666C34.7616 19.9168 34.3863 20.3007 33.8471 20.814C33.3079 21.3273 32.4495 21.9269 31.2805 22.6128C30.1072 23.2986 29.0288 23.6394 28.0453 23.6394L28.0496 23.6437ZM30.5817 14.7749L30.4393 14.7059C30.3444 14.6844 30.297 14.5938 30.297 14.4299V14.3608L30.3315 14.2573L31.1036 13.0581C31.1726 12.946 31.2934 12.8856 31.4573 12.8856L31.5997 12.9891C31.6946 13.0797 31.742 13.1487 31.742 13.1962V13.2652L31.673 13.4032L30.9354 14.6024C30.8405 14.7146 30.724 14.7749 30.5817 14.7749Z" fill="#607161"/>
<path d="M34.5934 23.5747C33.8687 23.5747 33.3769 23.303 33.1181 22.7551C33.0232 22.574 32.9758 22.3453 32.9758 22.0693C32.9758 21.0642 33.446 20.1066 34.382 19.1921C34.4079 19.1231 34.4769 19.0886 34.5934 19.0886C34.6883 19.0886 34.7702 19.1231 34.8392 19.1921C34.9083 19.2611 34.9428 19.3431 34.9428 19.4337C34.9428 19.5242 34.9212 19.5933 34.8738 19.6407C34.0757 20.4646 33.6789 21.2626 33.6789 22.0391C33.6789 22.2418 33.7048 22.3928 33.7479 22.4834C33.8428 22.7594 34.1232 22.8932 34.5934 22.8932C35.3655 22.8932 36.1765 22.561 37.0219 21.901C36.7415 21.7199 36.5302 21.5344 36.3878 21.3532C35.8961 20.7579 35.6502 20.0419 35.6502 19.1964C35.6502 18.3078 35.8961 17.5141 36.3878 16.8153C36.8796 16.1165 37.5266 15.7714 38.3246 15.7714C38.9113 15.7714 39.3685 15.944 39.6964 16.2847C39.9552 16.6039 40.0846 17.0267 40.0846 17.5529C40.0846 18.7866 39.5324 20.0634 38.4325 21.3877C38.385 21.4567 38.316 21.5387 38.2211 21.6293C38.454 21.6767 38.6438 21.6983 38.7819 21.6983C39.5066 21.6983 40.283 21.4697 41.1026 21.0124C41.9222 20.5552 42.6512 19.9599 43.281 19.2309C43.35 19.1619 43.4319 19.1274 43.5268 19.1274C43.5958 19.1274 43.6778 19.149 43.7727 19.1964C43.8417 19.2654 43.8762 19.356 43.8762 19.4725C43.8762 19.5631 43.8547 19.6321 43.8072 19.6752C43.1041 20.4991 42.2931 21.1462 41.3787 21.6293C40.4642 22.1081 39.5971 22.3496 38.7776 22.3496C38.3333 22.3496 37.9709 22.3022 37.6862 22.2116C36.6294 23.1261 35.5984 23.579 34.5891 23.579L34.5934 23.5747ZM38.3203 16.4184C37.7595 16.4184 37.2894 16.7031 36.9141 17.2725C36.5388 17.8419 36.3533 18.4803 36.3533 19.1878C36.3533 19.8952 36.5431 20.4991 36.9141 20.9348C37.147 21.1634 37.3498 21.323 37.5137 21.4136C38.0744 20.8183 38.536 20.167 38.8854 19.4595C39.2348 18.7521 39.4117 18.1137 39.4117 17.54C39.4117 17.1992 39.3297 16.9231 39.1658 16.7204C39.0019 16.5133 38.7215 16.4141 38.3203 16.4141V16.4184Z" fill="#607161"/>
<path d="M11.6321 31.0976C10.2474 31.0976 9.19057 30.7439 8.46157 30.0408C7.73257 29.3333 7.37023 28.5094 7.37023 27.5604C7.37023 26.495 7.68943 25.6064 8.32353 24.8903C8.95763 24.1743 9.87211 23.6221 11.0713 23.2425C12.2705 22.8629 13.4524 22.5653 14.6128 22.3582C15.7774 22.1512 17.1837 21.9312 18.8401 21.7026C20.4965 21.4696 21.7949 21.241 22.7353 21.0081V20.594C22.7353 18.9074 21.9459 17.4494 20.3714 16.2286C18.7969 15.0036 16.39 14.391 13.1461 14.391H12.6889C10.1266 18.8082 6.43849 23.6264 1.62451 28.8459C1.55118 28.9365 1.46922 28.9839 1.37433 28.9839C1.25786 28.9839 1.18453 28.9494 1.16296 28.8804C1.06806 28.7855 1.02061 28.6949 1.02061 28.6043C1.02061 28.5353 1.05512 28.4663 1.12414 28.3973C5.75263 23.3116 9.33723 18.6572 11.8736 14.4255C11.4509 14.4255 10.9117 14.4471 10.2517 14.4946C10.0619 14.4946 9.94545 14.3997 9.89799 14.2185V14.1495C9.89799 14.0114 9.95839 13.9079 10.0749 13.8389C10.5666 13.6318 11.438 13.3558 12.6803 13.0064C14.2073 10.2543 15.0527 7.92063 15.2167 6.00539L15.2512 5.37992C15.2512 4.13329 14.919 3.18861 14.2461 2.55451C13.5775 1.92041 12.6414 1.60121 11.4423 1.60121C9.11723 1.60121 6.89142 2.61059 4.76481 4.63367C2.65115 6.65243 1.58569 8.58924 1.58569 10.4355C1.58569 12.424 2.56056 13.9252 4.51031 14.9432C4.62678 14.9906 4.68717 15.0812 4.68717 15.2192C4.68717 15.2883 4.67423 15.3443 4.65266 15.3918C4.60521 15.5082 4.51031 15.5643 4.37228 15.5643L4.19542 15.5298C2.00842 14.3997 0.917084 12.6915 0.917084 10.4009C0.917084 8.32179 2.05156 6.21676 4.32051 4.09015C6.58515 1.96786 8.96194 0.902405 11.4552 0.902405C12.8399 0.902405 13.9355 1.282 14.7335 2.04551C15.5316 2.80902 15.9327 3.89604 15.9327 5.30228L15.8982 6.06578C15.8292 6.96732 15.5574 8.08886 15.0873 9.43039C16.6358 7.67475 18.2534 6.16931 19.9314 4.92268C21.6094 3.67605 23.1192 3.05058 24.4607 3.05058C25.8022 3.05058 26.5053 3.83565 26.5053 5.4058C26.5053 5.93637 26.4191 6.44107 26.2422 6.91556C26.0654 7.39006 25.8583 7.8171 25.6254 8.1967C25.3881 8.5763 25.0387 8.95589 24.5685 9.32255C24.0984 9.69352 23.6756 10.0041 23.3003 10.2586C22.9251 10.5131 22.4031 10.7805 21.7302 11.0566C21.0616 11.3327 20.5094 11.5527 20.0738 11.7166C19.6381 11.8762 19.0342 12.0703 18.2577 12.286C17.4813 12.506 16.9033 12.6613 16.5151 12.7562C16.1268 12.8511 15.5359 12.9934 14.7335 13.1875C13.9355 13.3816 13.405 13.5197 13.1461 13.5887L13.0771 13.7267H13.1461C16.6013 13.7267 19.1765 14.404 20.8804 15.7541C22.5843 17.1043 23.4341 18.7176 23.4341 20.5897V20.8312C25.1034 20.3697 26.3716 19.7571 27.2387 18.9936C27.3077 18.9246 27.3939 18.8901 27.4845 18.8901C27.5751 18.8901 27.6614 18.9246 27.7304 18.9936C27.7779 19.0842 27.7994 19.1532 27.7994 19.2007C27.7994 19.3172 27.7649 19.4077 27.6959 19.4768C26.734 20.3524 25.276 21.0469 23.3262 21.5559C22.9509 23.9586 21.5749 26.1499 19.2024 28.1255C16.8299 30.1012 14.3022 31.089 11.6234 31.089L11.6321 31.0976ZM11.6321 30.4376C14.0994 30.4376 16.4374 29.5404 18.646 27.7502C20.8545 25.9601 22.1788 23.9543 22.6274 21.7371C21.6871 21.9441 20.4189 22.1598 18.8228 22.3798C17.2225 22.5998 15.8853 22.8069 14.8069 23.0053C13.7242 23.2037 12.6199 23.4755 11.494 23.8206C10.3639 24.1656 9.51408 24.6574 8.94038 25.2915C8.36235 25.9256 8.07766 26.7064 8.07766 27.6338C8.07766 28.4404 8.38824 29.1133 9.00939 29.6439C9.63055 30.1745 10.5062 30.4419 11.6364 30.4419L11.6321 30.4376ZM13.5689 12.7907C17.4468 11.846 20.173 10.9747 21.7431 10.1896C24.4434 8.87394 25.7979 7.25634 25.7979 5.33678C25.7979 4.24976 25.3493 3.70624 24.4607 3.70624C23.0286 3.70624 21.3075 4.55602 19.2973 6.25558C17.2915 7.95514 15.579 9.7496 14.1728 11.6476L13.5732 12.7907H13.5689Z" fill="#607161"/>
</svg>
