<svg width="120" height="31" viewBox="0 0 120 31" fill="none" xmlns="http://www.w3.org/2000/svg">
<path d="M48.7394 21.6913H45.2108V8.45947H48.7394C49.7703 8.45947 50.6589 8.8342 51.4095 9.58367C52.16 10.3331 52.5353 11.2247 52.5353 12.2499C52.5353 12.8443 52.4102 13.4042 52.1514 13.9297C51.8969 14.4552 51.5993 14.8428 51.2628 15.084C51.6036 15.3252 51.8969 15.7086 52.1514 16.2341C52.4059 16.7595 52.5353 17.3195 52.5353 17.9139C52.5353 18.9433 52.16 19.8306 51.4095 20.5715C50.6589 21.3166 49.766 21.687 48.7394 21.687V21.6913ZM48.7394 14.0675C49.2613 14.0675 49.697 13.8952 50.0464 13.5506C50.3958 13.2061 50.5726 12.771 50.5726 12.2542C50.5726 11.7373 50.3958 11.298 50.0464 10.9491C49.6927 10.6002 49.257 10.4236 48.7394 10.4236H47.1778V14.0718H48.7394V14.0675ZM48.7394 19.7488C49.2613 19.7488 49.697 19.5722 50.0464 19.2233C50.3958 18.8744 50.5726 18.4351 50.5726 17.9182C50.5726 17.4013 50.3958 16.9663 50.0464 16.6217C49.6927 16.2771 49.257 16.1048 48.7394 16.1048H47.1778V19.7531H48.7394V19.7488Z" fill="#D0C9C0"/>
<path d="M64.9067 21.6913H58.2897V8.45947H64.9067V10.4193H60.2524V14.0675H63.6515V16.0273H60.2524V19.7315H64.9067V21.6913Z" fill="#D0C9C0"/>
<path d="M79.5643 21.6913H77.5456L76.437 17.4099H73.7108L72.6022 21.6913H70.5834L74.0731 8.45947H76.0746L79.5643 21.6913ZM75.9107 15.4286L75.0739 12.2714L74.237 15.4286H75.9107Z" fill="#D0C9C0"/>
<path d="M91.0989 20.6102C90.3785 21.3295 89.5201 21.6913 88.528 21.6913C87.5359 21.6913 86.6731 21.3295 85.9485 20.6102C85.2195 19.8909 84.8571 19.0338 84.8571 18.0431V8.45947H86.8198V18.0431C86.8198 18.5255 86.9837 18.9304 87.3116 19.2491C87.6394 19.5722 88.0449 19.7315 88.528 19.7315C89.0111 19.7315 89.4166 19.5722 89.7358 19.2491C90.055 18.9304 90.2189 18.5255 90.2189 18.0431V8.45947H92.1816V18.0431C92.1816 19.0338 91.8193 19.8909 91.0989 20.6102Z" fill="#D0C9C0"/>
<path d="M102.564 21.6913H100.602V10.4193H97.9316V8.45947H105.239V10.4193H102.564V21.6913Z" fill="#D0C9C0"/>
<path d="M116.385 21.6913H114.423V15.3382L110.803 8.45947H113.021L115.402 12.9605L117.783 8.45947H120L116.381 15.3037V21.6913H116.385Z" fill="#D0C9C0"/>
<path d="M27.1325 22.7078C26.4984 22.7078 26.0541 22.458 25.7953 21.954C25.6789 21.7473 25.6185 21.463 25.6185 21.0969C25.6185 20.5025 25.8083 19.7272 26.1792 18.771C26.6494 17.608 27.1627 16.7078 27.7278 16.0703C27.7968 16.0014 27.8788 15.967 27.9737 15.967C28.0427 15.967 28.1247 15.9885 28.2196 16.0359C28.2886 16.1048 28.3231 16.1952 28.3231 16.3072C28.3231 16.3546 28.2972 16.4235 28.2541 16.514C27.8529 16.9232 27.4345 17.6252 26.9902 18.6159C26.5459 19.6066 26.3216 20.4336 26.3216 21.0969C26.3216 21.3682 26.3561 21.5621 26.4251 21.6784C26.52 21.9282 26.7529 22.0531 27.1282 22.0531C28.9788 22.0531 31.114 20.7997 33.5296 18.2929C33.5986 18.224 33.6806 18.1895 33.7755 18.1895C33.8445 18.1895 33.9265 18.211 34.0214 18.2584C34.0904 18.3273 34.1249 18.4178 34.1249 18.5341C34.1249 18.5815 34.099 18.6461 34.0559 18.7365C33.8445 18.9863 33.4692 19.3697 32.93 19.8822C32.3908 20.3948 31.5324 20.9935 30.3634 21.6784C29.1901 22.3632 28.1117 22.7035 27.1282 22.7035L27.1325 22.7078ZM29.6646 13.8521L29.5223 13.7832C29.4274 13.7616 29.3799 13.6712 29.3799 13.5075V13.4386L29.4144 13.3352L30.1866 12.1378C30.2556 12.0258 30.3764 11.9655 30.5403 11.9655L30.6826 12.0689C30.7775 12.1593 30.825 12.2283 30.825 12.2756V12.3446L30.756 12.4824L30.0183 13.6798C29.9234 13.7918 29.807 13.8521 29.6646 13.8521Z" fill="#E4F7E5"/>
<path d="M33.6763 22.6389C32.9516 22.6389 32.4598 22.3676 32.201 21.8205C32.1061 21.6396 32.0587 21.4114 32.0587 21.1357C32.0587 20.1321 32.5289 19.1759 33.4649 18.2628C33.4908 18.1938 33.5598 18.1594 33.6763 18.1594C33.7712 18.1594 33.8531 18.1938 33.9221 18.2628C33.9912 18.3317 34.0257 18.4135 34.0257 18.504C34.0257 18.5944 34.0041 18.6633 33.9567 18.7107C33.1586 19.5334 32.7618 20.3302 32.7618 21.1055C32.7618 21.308 32.7877 21.4587 32.8308 21.5492C32.9257 21.8249 33.2061 21.9584 33.6763 21.9584C34.4484 21.9584 35.2594 21.6267 36.1048 20.9677C35.8244 20.7868 35.6131 20.6016 35.4707 20.4207C34.979 19.8263 34.7331 19.1113 34.7331 18.2671C34.7331 17.3798 34.979 16.5872 35.4707 15.8895C35.9625 15.1917 36.6095 14.8471 37.4075 14.8471C37.9942 14.8471 38.4514 15.0194 38.7793 15.3597C39.0381 15.6784 39.1675 16.1005 39.1675 16.626C39.1675 17.8579 38.6153 19.1328 37.5154 20.4551C37.4679 20.5241 37.3989 20.6059 37.304 20.6964C37.5369 20.7437 37.7267 20.7653 37.8648 20.7653C38.5895 20.7653 39.3659 20.537 40.1855 20.0804C41.0051 19.6238 41.7341 19.0294 42.3639 18.3015C42.4329 18.2326 42.5148 18.1981 42.6097 18.1981C42.6788 18.1981 42.7607 18.2197 42.8556 18.2671C42.9246 18.336 42.9591 18.4264 42.9591 18.5427C42.9591 18.6332 42.9376 18.7021 42.8901 18.7452C42.187 19.5679 41.376 20.2139 40.4616 20.6964C39.5471 21.1745 38.68 21.4157 37.8605 21.4157C37.4162 21.4157 37.0538 21.3683 36.7691 21.2778C35.7123 22.191 34.6813 22.6432 33.672 22.6432L33.6763 22.6389ZM37.4032 15.4932C36.8425 15.4932 36.3723 15.7775 35.997 16.346C35.6217 16.9146 35.4362 17.5521 35.4362 18.2584C35.4362 18.9648 35.626 19.5679 35.997 20.0029C36.2299 20.2312 36.4327 20.3905 36.5966 20.481C37.1573 19.8866 37.6189 19.2362 37.9683 18.5298C38.3177 17.8234 38.4946 17.1859 38.4946 16.6131C38.4946 16.2728 38.4126 15.9971 38.2487 15.7947C38.0848 15.588 37.8044 15.4889 37.4032 15.4889V15.4932Z" fill="#E4F7E5"/>
<path d="M10.715 30.1508C9.33031 30.1508 8.27348 29.7976 7.54448 29.0955C6.81549 28.3891 6.45314 27.5664 6.45314 26.6188C6.45314 25.5549 6.77235 24.6676 7.40645 23.9526C8.04055 23.2376 8.95503 22.6863 10.1542 22.3073C11.3534 21.9282 12.5353 21.631 13.6957 21.4243C14.8603 21.2175 16.2666 20.9978 17.923 20.7696C19.5794 20.537 20.8778 20.3087 21.8182 20.0761V19.6626C21.8182 17.9785 21.0288 16.5226 19.4543 15.3037C17.8799 14.0804 15.4729 13.4688 12.2291 13.4688H11.7718C9.20953 17.8794 5.52141 22.6906 0.70743 27.9024C0.634099 27.9928 0.552141 28.0402 0.457241 28.0402C0.340774 28.0402 0.267443 28.0057 0.245875 27.9368C0.150976 27.8421 0.103526 27.7516 0.103526 27.6612C0.103526 27.5922 0.138035 27.5233 0.207053 27.4544C4.83554 22.3762 8.42014 17.7286 10.9565 13.5032C10.5338 13.5032 9.99461 13.5248 9.33463 13.5721C9.14483 13.5721 9.02836 13.4774 8.98091 13.2965V13.2276C8.98091 13.0897 9.0413 12.9864 9.15777 12.9174C9.64952 12.7107 10.5209 12.435 11.7632 12.0861C13.2902 9.33812 14.1357 7.0079 14.2996 5.09548L14.3341 4.47093C14.3341 3.22613 14.0019 2.28284 13.329 1.64968C12.6604 1.01651 11.7244 0.697775 10.5252 0.697775C8.20015 0.697775 5.97433 1.70567 3.84773 3.72577C1.73407 5.74156 0.668608 7.67552 0.668608 9.51902C0.668608 11.5047 1.64348 13.0036 3.59323 14.0201C3.70969 14.0675 3.77008 14.1579 3.77008 14.2958C3.77008 14.3647 3.75714 14.4207 3.73558 14.4681C3.68813 14.5843 3.59323 14.6403 3.45519 14.6403L3.27833 14.6059C1.09134 13.4774 0 11.7717 0 9.48457C0 7.40847 1.13448 5.30653 3.40343 3.18306C5.66807 1.06389 8.04486 0 10.5381 0C11.9228 0 13.0184 0.379038 13.8165 1.14142C14.6145 1.9038 15.0156 2.98923 15.0156 4.3934L14.9811 5.15578C14.9121 6.05599 14.6404 7.17588 14.1702 8.51543C15.7188 6.76238 17.3364 5.25915 19.0143 4.01436C20.6923 2.76956 22.2021 2.14501 23.5436 2.14501C24.8851 2.14501 25.5883 2.92893 25.5883 4.49677C25.5883 5.02656 25.502 5.53051 25.3251 6.00431C25.1483 6.4781 24.9412 6.90452 24.7083 7.28356C24.471 7.6626 24.1216 8.04164 23.6515 8.40775C23.1813 8.77818 22.7585 9.0883 22.3833 9.34243C22.008 9.59655 21.486 9.8636 20.8131 10.1393C20.1445 10.4149 19.5924 10.6346 19.1567 10.7983C18.721 10.9576 18.1171 11.1515 17.3407 11.3668C16.5642 11.5865 15.9862 11.7416 15.598 11.8363C15.2097 11.9311 14.6188 12.0732 13.8165 12.267C13.0184 12.4609 12.4879 12.5987 12.2291 12.6676L12.16 12.8055H12.2291C15.6842 12.8055 18.2595 13.4817 19.9633 14.8299C21.6672 16.178 22.517 17.7889 22.517 19.6583V19.8995C24.1863 19.4386 25.4545 18.827 26.3216 18.0646C26.3906 17.9957 26.4769 17.9612 26.5675 17.9612C26.658 17.9612 26.7443 17.9957 26.8133 18.0646C26.8608 18.1551 26.8823 18.224 26.8823 18.2714C26.8823 18.3877 26.8478 18.4781 26.7788 18.547C25.8169 19.4214 24.3589 20.1149 22.4091 20.6231C22.0339 23.0223 20.6578 25.2103 18.2853 27.1831C15.9129 29.1558 13.3851 30.1421 10.7064 30.1421L10.715 30.1508ZM10.715 29.4917C13.1824 29.4917 15.5203 28.5958 17.7289 26.8083C19.9375 25.0208 21.2617 23.0179 21.7103 20.804C20.77 21.0108 19.5018 21.2261 17.9057 21.4458C16.3054 21.6655 14.9682 21.8722 13.8898 22.0704C12.8071 22.2685 11.7028 22.5398 10.5769 22.8844C9.44678 23.229 8.597 23.72 8.02329 24.3532C7.44527 24.9864 7.16057 25.766 7.16057 26.692C7.16057 27.4975 7.47115 28.1694 8.09231 28.6992C8.71347 29.229 9.58913 29.4961 10.7193 29.4961L10.715 29.4917ZM12.6518 11.8708C16.5297 10.9275 19.2559 10.0574 20.8261 9.27351C23.5264 7.9598 24.8808 6.34458 24.8808 4.42785C24.8808 3.34243 24.4322 2.79971 23.5436 2.79971C22.1115 2.79971 20.3904 3.64824 18.3802 5.3453C16.3744 7.04235 14.6619 8.83417 13.2557 10.7294L12.6561 11.8708H12.6518Z" fill="#E4F7E5"/>
</svg>
