<svg width="16" height="16" viewBox="0 0 16 16" fill="none" xmlns="http://www.w3.org/2000/svg">
<path d="M8.25776 7.82744C6.09897 7.82744 4.34404 6.07251 4.34404 3.91372C4.34404 1.75493 6.09897 0 8.25776 0C10.4165 0 12.1715 1.75493 12.1715 3.91372C12.1715 6.07251 10.4165 7.82744 8.25776 7.82744ZM8.25776 0.822395C6.55422 0.822395 5.16643 2.21019 5.16643 3.91372C5.16643 5.61726 6.55422 7.00505 8.25776 7.00505C9.96129 7.00505 11.3491 5.61726 11.3491 3.91372C11.3491 2.21019 9.96129 0.822395 8.25776 0.822395Z" fill="#607161"/>
<path d="M15.2628 16H1.24537C1.01774 16 0.834167 15.8164 0.834167 15.5888V12.0863C0.834167 10.5737 2.06776 9.34006 3.58038 9.34006H12.9204C14.4331 9.34006 15.6667 10.5737 15.6667 12.0863V15.5888C15.6667 15.8164 15.4831 16 15.2555 16H15.2628ZM1.65657 15.1776H14.8516V12.0863C14.8516 11.0216 13.9852 10.1625 12.9278 10.1625H3.58772C2.52302 10.1625 1.66391 11.0289 1.66391 12.0863V15.1776H1.65657Z" fill="#607161"/>
</svg>
