<svg width="14" height="16" viewBox="0 0 14 16" fill="none" xmlns="http://www.w3.org/2000/svg">
<path d="M13.6304 3.64357H1.03629C0.831671 3.64357 0.666656 3.80859 0.666656 4.01321V15.6304C0.666656 15.835 0.831671 16 1.03629 16H13.6304C13.835 16 14 15.835 14 15.6304V4.01321C14 3.80859 13.835 3.64357 13.6304 3.64357ZM13.2607 15.2607H1.39933V4.38284H13.2607V15.2607Z" fill="#607161"/>
<path d="M11.6964 6.49505L11.0033 6.42904C11.0231 6.19802 11.0363 5.9934 11.0363 5.80198C11.0363 2.9901 9.37292 0.69967 7.32672 0.69967C5.28051 0.69967 3.61715 2.9901 3.61715 5.80198C3.61715 5.9934 3.63035 6.19142 3.65015 6.42904L2.95709 6.48845C2.93728 6.23102 2.92408 6.0066 2.92408 5.79538C2.92408 2.60066 4.89768 0 7.32672 0C9.75576 0 11.7294 2.60066 11.7294 5.79538C11.7294 6.0066 11.7162 6.23762 11.6964 6.48845V6.49505Z" fill="#607161"/>
</svg>
